<?xml version="1.0" standalone="no"?>
<!DOCTYPE svg PUBLIC "-//W3C//DTD SVG 20010904//EN"
 "http://www.w3.org/TR/2001/REC-SVG-20010904/DTD/svg10.dtd">
<svg version="1.0" xmlns="http://www.w3.org/2000/svg"
 width="70.000000pt" height="223.000000pt" viewBox="0 0 70.000000 223.000000"
 preserveAspectRatio="xMidYMid meet">

<g transform="translate(0.000000,223.000000) scale(0.100000,-0.100000)"
fill="#000000" stroke="none">
<path d="M326 2218 c-7 -21 -34 -221 -53 -383 -25 -216 -25 -864 0 -1084 10
-85 20 -158 23 -162 6 -11 61 -12 67 -1 2 4 -2 72 -10 152 -7 80 -15 332 -19
560 -6 389 -3 485 23 843 5 77 4 87 -11 87 -9 0 -18 -6 -20 -12z"/>
<path d="M537 626 c-47 -17 -103 -55 -147 -101 l-33 -34 -43 39 c-100 92 -234
128 -284 75 -90 -96 40 -359 245 -493 59 -39 71 -51 64 -64 -10 -18 12 -48 36
-48 38 0 204 223 272 365 33 69 38 90 38 148 0 65 -2 70 -33 98 -36 32 -58 35
-115 15z m-407 -65 c-20 -4 -42 -11 -50 -15 -8 -4 -6 0 4 8 11 9 34 15 50 15
31 -1 31 -1 -4 -8z m-21 -171 c11 -24 11 -24 -3 -6 -9 11 -16 24 -16 30 0 12
5 7 19 -24z m235 -258 c27 -18 43 -32 34 -32 -27 0 -163 119 -211 184 -11 16
13 -4 54 -45 40 -41 96 -89 123 -107z"/>
</g>
</svg>
