<?xml version="1.0" standalone="no"?>
<!DOCTYPE svg PUBLIC "-//W3C//DTD SVG 20010904//EN"
 "http://www.w3.org/TR/2001/REC-SVG-20010904/DTD/svg10.dtd">
<svg version="1.0" xmlns="http://www.w3.org/2000/svg"
 width="877.000000pt" height="797.000000pt" viewBox="0 0 877.000000 797.000000"
 preserveAspectRatio="xMidYMid meet">

<g transform="translate(0.000000,797.000000) scale(0.100000,-0.100000)"
fill="#000000" stroke="none">
<path d="M6333 6440 c-35 -14 -61 -67 -75 -147 -6 -40 -14 -73 -17 -73 -4 0
-23 36 -43 79 -28 59 -47 85 -73 101 -103 64 -107 -73 -6 -240 44 -73 112
-159 126 -159 28 -2 114 161 144 272 26 96 27 131 1 157 -22 22 -25 23 -57 10z"/>
<path d="M2912 6349 c-36 -23 -83 -99 -125 -199 -72 -172 -132 -566 -141 -928
-3 -131 -7 -156 -23 -174 -42 -47 -173 -143 -233 -172 -58 -28 -75 -31 -155
-31 -84 0 -95 2 -153 34 -103 56 -181 160 -182 243 0 75 100 143 174 118 45
-15 72 -49 92 -116 16 -56 34 -70 66 -53 17 9 20 18 15 53 -16 113 -67 174
-167 195 -94 20 -178 -12 -235 -89 -67 -91 -52 -185 51 -306 95 -113 221 -168
365 -162 96 4 151 26 284 112 39 25 73 46 76 46 3 0 9 -127 12 -282 8 -313 22
-504 38 -525 14 -17 53 -17 67 0 6 7 16 76 21 153 26 343 90 538 238 723 31
39 60 71 64 71 15 0 10 -83 -7 -136 -8 -27 -18 -103 -21 -170 -5 -106 -3 -131
16 -192 24 -80 54 -112 106 -112 41 0 62 24 115 129 l42 84 18 -40 c24 -54 63
-83 113 -83 34 0 46 6 81 43 22 24 49 56 59 71 l19 27 35 -40 c19 -23 42 -41
52 -41 43 0 103 75 159 200 l33 75 -6 -115 c-3 -63 -15 -230 -26 -370 -10
-140 -22 -341 -26 -447 -7 -206 -3 -223 42 -223 47 0 52 20 59 245 6 193 39
939 50 1150 7 119 28 177 86 237 54 56 92 63 128 25 36 -39 28 -71 -35 -145
-78 -90 -117 -154 -143 -232 -19 -57 -21 -71 -10 -117 35 -159 180 -149 253
17 35 79 47 141 50 260 4 116 13 142 59 166 l31 16 -6 -173 c-3 -96 -13 -298
-21 -449 -9 -151 -17 -338 -18 -415 l-3 -140 39 0 38 0 3 175 c5 256 52 989
66 1030 30 88 127 180 190 180 29 0 79 -34 79 -55 0 -7 -34 -47 -75 -88 -91
-91 -128 -163 -128 -247 0 -94 46 -162 119 -176 41 -8 83 28 128 109 44 80 65
152 73 255 6 77 10 89 50 150 24 37 47 65 51 62 3 -3 5 -73 3 -156 -2 -133 0
-157 17 -196 14 -32 29 -49 57 -62 79 -38 155 19 222 165 32 71 38 79 46 61
16 -35 -2 -167 -26 -203 -12 -18 -62 -67 -110 -108 -98 -84 -150 -146 -203
-238 -77 -135 -126 -328 -128 -505 -1 -109 11 -138 75 -171 71 -38 243 -5 313
61 l28 27 -6 -30 c-3 -16 -13 -106 -21 -200 -25 -284 -27 -305 -40 -322 -11
-15 -17 -14 -68 7 -55 23 -56 23 -104 5 -96 -36 -189 -163 -227 -310 -8 -33
-22 -134 -31 -225 -22 -235 -51 -335 -134 -467 -14 -24 -31 -43 -38 -43 -54 0
-60 358 -13 805 10 104 29 300 40 435 11 135 25 282 31 328 10 87 4 114 -27
126 -35 13 -43 -15 -59 -199 -9 -99 -18 -187 -20 -195 -2 -8 -11 -82 -20 -165
-15 -144 -41 -311 -51 -327 -3 -4 -22 3 -42 17 -79 52 -144 42 -222 -36 -91
-91 -141 -207 -161 -373 -13 -113 -31 -186 -65 -262 -34 -77 -121 -208 -182
-272 -42 -46 -53 -52 -88 -52 -95 0 -158 95 -173 263 -5 55 -7 105 -5 112 3 7
32 15 70 19 84 9 131 27 226 90 102 66 131 108 136 199 5 87 -15 142 -72 195
-54 50 -121 67 -198 51 -176 -38 -290 -339 -250 -660 26 -211 133 -354 266
-353 94 0 149 42 237 176 26 40 60 91 74 112 l27 39 27 -49 c44 -82 99 -85
181 -8 52 48 89 113 141 244 l34 85 7 -115 c13 -226 57 -340 130 -340 76 0
151 92 203 248 l17 53 37 -43 c69 -77 134 -53 229 85 51 74 112 190 112 214 0
30 20 19 31 -17 16 -52 54 -90 89 -90 50 0 163 142 185 233 9 36 21 34 29 -3
8 -43 48 -80 86 -80 55 0 94 57 161 235 l34 90 3 -65 c3 -70 20 -100 57 -100
36 0 45 20 45 96 0 101 25 230 70 365 66 199 157 396 187 406 31 11 34 -36 18
-255 -12 -166 -13 -241 -5 -315 11 -105 19 -131 50 -147 51 -27 80 -2 170 148
30 51 58 92 61 92 4 0 9 -11 13 -23 10 -41 45 -77 75 -77 53 0 119 77 195 228
43 85 61 93 52 25 -3 -27 -13 -118 -21 -203 -19 -186 -50 -389 -66 -424 -9
-20 -21 -26 -58 -31 -374 -48 -692 -196 -926 -430 -95 -94 -163 -199 -201
-310 -26 -74 -28 -92 -28 -225 1 -123 5 -160 27 -244 29 -106 70 -190 108
-219 29 -21 193 -57 265 -57 80 0 147 26 261 102 124 83 227 178 289 264 58
81 145 265 179 379 15 50 32 96 38 104 10 11 60 12 292 6 240 -6 290 -4 349 9
146 34 274 123 317 221 24 54 27 156 6 206 l-14 35 50 18 c73 26 125 64 153
111 41 71 28 125 -32 125 -41 0 -64 -11 -121 -58 -24 -19 -43 -30 -43 -26 0 5
-5 37 -10 72 -15 105 -45 131 -110 97 -61 -32 -77 -123 -39 -225 40 -109 47
-100 -79 -100 -135 0 -219 -23 -278 -74 -21 -20 -34 -35 -28 -36 6 0 17 7 24
16 25 29 97 64 156 75 70 13 224 3 224 -14 0 -7 14 -30 30 -51 16 -22 32 -54
36 -72 13 -69 -65 -173 -163 -216 -25 -11 -88 -24 -146 -30 -116 -12 -524 -5
-539 10 -5 5 4 62 26 148 19 76 40 167 46 201 13 65 36 100 73 107 143 30 184
42 248 72 252 121 438 363 495 643 11 57 15 106 10 150 -15 160 -143 302 -272
301 -78 -1 -193 -91 -244 -190 -101 -198 -33 -470 118 -470 46 0 65 15 87 67
19 44 19 67 1 82 -19 16 -39 6 -60 -30 -23 -39 -53 -36 -82 9 -75 111 1 371
128 438 80 42 177 -8 225 -115 41 -92 6 -311 -73 -461 -110 -210 -387 -410
-567 -410 -46 0 -49 1 -43 23 7 30 51 438 71 661 9 98 22 215 30 260 19 107
19 123 -5 136 -36 19 -54 -4 -99 -122 -58 -150 -172 -384 -210 -428 -24 -29
-33 -33 -47 -24 -28 17 -37 70 -31 184 7 128 35 239 86 347 83 173 171 268
229 247 25 -9 27 -14 27 -63 0 -40 4 -56 18 -65 63 -40 92 117 32 177 -32 31
-69 39 -126 26 -67 -15 -113 -51 -167 -131 -107 -159 -158 -296 -173 -463 -11
-125 -31 -196 -83 -291 -64 -116 -87 -147 -99 -135 -17 17 -20 163 -7 301 28
307 25 363 -26 414 -18 18 -37 26 -60 26 -28 0 -39 -8 -70 -47 -20 -27 -64
-104 -98 -173 l-61 -125 -5 89 c-4 67 -9 91 -21 99 -36 23 -46 3 -52 -105 -4
-56 -16 -141 -28 -188 -23 -92 -162 -470 -186 -507 -18 -26 -41 -30 -50 -8 -3
9 2 107 11 218 26 314 35 498 25 524 -12 32 -57 32 -64 1 -2 -13 -14 -98 -25
-191 -41 -341 -113 -599 -194 -694 -47 -56 -56 -46 -58 65 -6 321 37 896 77
1039 21 72 19 107 -8 139 -23 26 -23 29 -11 98 12 64 33 285 49 518 5 66 12
94 27 113 29 37 207 120 318 149 261 68 382 51 433 -62 39 -90 22 -209 -41
-283 -93 -109 -280 -121 -328 -21 -32 67 -2 166 54 178 59 12 73 23 70 51 -8
72 -124 42 -184 -48 -55 -83 -52 -166 8 -235 47 -53 101 -77 189 -82 68 -4 84
-1 135 22 76 35 120 77 155 150 35 74 45 149 29 229 -33 171 -130 223 -364
199 -133 -14 -263 -49 -361 -97 -38 -18 -83 -39 -99 -45 l-29 -11 7 128 c4 71
14 198 21 283 13 141 12 156 -3 168 -43 33 -76 0 -86 -86 -4 -30 -18 -89 -32
-133 -25 -79 -141 -319 -171 -351 -23 -25 -50 -22 -69 7 -15 22 -15 40 -5 172
18 230 18 259 -6 291 -41 56 -71 39 -133 -76 -20 -37 -48 -74 -63 -82 -24 -13
-28 -12 -71 18 -115 82 -167 81 -276 -7 -32 -26 -54 -36 -79 -36 -36 0 -46
-11 -56 -57 -3 -18 -20 -37 -45 -53 -50 -32 -56 -31 -74 4 -9 17 -34 38 -61
51 -60 29 -109 21 -178 -31 -49 -37 -63 -44 -112 -51 -19 -3 -20 -10 -17 -93
2 -58 -2 -114 -12 -157 -24 -103 -132 -369 -163 -403 l-28 -30 -7 55 c-4 31
-2 89 4 132 13 90 4 111 -46 106 -29 -3 -31 -6 -58 -102 -16 -55 -47 -137 -69
-182 -43 -89 -68 -109 -98 -80 -13 14 -16 39 -16 144 0 146 9 180 87 337 67
133 83 155 117 155 38 0 51 -17 51 -70 0 -51 13 -70 46 -70 27 0 34 17 34 78
0 63 -26 113 -71 134 -33 17 -39 17 -87 3 -69 -21 -112 -66 -160 -168 -48
-100 -75 -177 -108 -310 -27 -106 -57 -173 -122 -277 l-39 -62 -13 34 c-7 18
-14 80 -17 138 -4 83 0 124 16 197 35 155 23 241 -35 263 -79 30 -239 -162
-339 -405 -20 -50 -41 -94 -46 -99 -5 -6 -9 62 -9 167 l0 177 94 101 c52 55
118 135 146 177 142 213 240 508 240 721 -1 153 -52 304 -119 349 -44 29 -114
30 -159 1z m131 -77 c37 -41 50 -95 55 -232 5 -156 -11 -262 -59 -392 -39
-106 -116 -260 -170 -339 -42 -62 -125 -149 -141 -149 -5 0 -7 19 -4 43 3 23
13 141 22 262 17 244 40 395 79 530 28 95 95 247 122 277 21 23 75 23 96 0z
m1752 -929 c-13 -114 -78 -283 -109 -283 -21 0 -46 35 -53 73 -8 49 44 157
105 220 25 26 50 47 55 47 5 0 6 -26 2 -57z m-575 -210 c0 -60 -26 -166 -54
-221 -29 -58 -38 -66 -66 -57 -17 5 -20 15 -20 61 0 30 7 71 15 91 19 44 103
163 116 163 5 0 9 -17 9 -37z m1096 -125 c-4 -24 -18 -151 -31 -283 -37 -345
-69 -447 -159 -500 -50 -29 -129 -34 -163 -10 -41 29 -46 72 -24 203 39 232
103 379 214 499 59 63 142 132 160 133 5 0 6 -19 3 -42z m-149 -1444 c25 -25
26 -28 20 -122 -8 -119 -35 -224 -81 -318 -44 -88 -140 -221 -166 -229 -56
-18 -80 48 -80 219 0 171 57 339 146 433 37 39 45 43 88 43 37 0 52 -5 73 -26z
m-744 -184 c20 -23 27 -40 27 -73 0 -87 -64 -295 -131 -429 -49 -97 -107 -178
-128 -178 -41 0 -46 24 -46 209 0 157 3 184 23 251 32 101 77 183 125 226 33
30 44 35 71 30 17 -3 43 -20 59 -36z m3113 -45 c9 -13 21 -66 28 -117 12 -89
28 -138 45 -138 4 0 24 36 44 79 27 60 43 84 66 96 29 14 32 14 51 -5 24 -24
25 -51 4 -96 -22 -47 -65 -81 -125 -99 -49 -14 -53 -14 -92 9 -35 19 -46 32
-64 82 -26 69 -29 131 -9 179 18 41 30 44 52 10z m-3705 -10 c61 -32 85 -108
55 -180 -36 -85 -97 -136 -211 -175 -137 -47 -164 -10 -106 149 32 88 74 155
121 195 37 30 94 35 141 11z m2852 -248 c3 -7 -17 -103 -44 -212 -49 -205 -59
-225 -105 -225 -34 0 -191 -29 -279 -51 -121 -30 -268 -106 -342 -176 -63 -58
-75 -87 -51 -111 22 -22 46 -12 100 41 68 68 160 122 268 157 84 28 285 65
314 58 12 -2 10 -17 -10 -84 -77 -267 -220 -474 -416 -602 -95 -62 -151 -82
-248 -89 -172 -12 -238 46 -286 252 -24 103 -24 256 0 345 23 86 84 200 146
276 121 148 376 304 612 375 173 51 331 73 341 46z"/>
<path d="M2031 6169 c-33 -36 -38 -120 -14 -240 l6 -29 -36 15 c-71 30 -156
13 -191 -37 -23 -32 -20 -53 13 -86 46 -46 115 -72 251 -97 69 -13 133 -26
142 -30 28 -11 36 23 27 115 -18 181 -57 316 -111 385 -24 31 -60 32 -87 4z
m25 -24 c-3 -8 8 -38 25 -67 89 -151 134 -274 104 -284 -5 -2 -38 56 -73 129
-34 73 -67 131 -72 130 -15 -4 -23 63 -11 86 13 24 36 29 27 6z m47 -289 c56
-116 73 -139 88 -115 6 11 9 10 15 -4 3 -10 5 -20 2 -22 -3 -3 -181 24 -184
28 -11 13 -64 130 -61 133 8 8 67 -48 98 -93 28 -40 33 -43 46 -30 14 14 13
18 -5 44 -25 36 -71 173 -58 173 3 0 30 -51 59 -114z m-169 -21 c20 -36 36
-68 36 -70 0 -3 -9 -5 -20 -5 -15 0 -28 17 -50 62 -34 70 -36 78 -16 78 8 0
30 -29 50 -65z m-89 15 c21 -41 19 -47 -10 -20 -25 24 -33 50 -15 50 5 0 16
-13 25 -30z"/>
<path d="M6492 6125 c-40 -34 -80 -127 -101 -240 l-18 -95 24 0 c13 0 22 4 19
8 -2 4 2 46 10 92 16 94 72 223 105 241 28 15 49 -5 49 -46 0 -34 -71 -143
-107 -164 -17 -10 -17 -10 0 -11 10 0 32 8 50 17 18 9 50 22 72 30 l40 13 -43
-6 -44 -6 31 42 c39 54 47 94 27 125 -22 34 -74 34 -114 0z"/>
<path d="M6710 6025 c-10 -12 -10 -15 3 -15 8 0 20 7 27 15 10 12 10 15 -3 15
-8 0 -20 -7 -27 -15z"/>
<path d="M6768 5973 c6 -2 18 -2 25 0 6 3 1 5 -13 5 -14 0 -19 -2 -12 -5z"/>
<path d="M6682 5949 c12 -19 9 -24 -29 -58 -23 -21 -66 -47 -95 -59 -29 -11
-44 -21 -33 -21 43 -1 176 73 195 109 11 21 -10 50 -36 50 -12 0 -12 -4 -2
-21z"/>
<path d="M6478 5803 c7 -3 16 -2 19 1 4 3 -2 6 -13 5 -11 0 -14 -3 -6 -6z"/>
<path d="M5699 4567 c-37 -33 -96 -117 -119 -171 -33 -78 -22 -146 24 -146 50
0 126 131 132 230 2 36 1 59 -2 53 -12 -26 -22 -12 -13 19 5 17 7 33 6 34 -2
2 -14 -7 -28 -19z"/>
<path d="M3369 4308 c-1 -7 -3 -31 -4 -53 -3 -52 -25 -233 -80 -645 -56 -422
-91 -723 -105 -915 -20 -274 -103 -1020 -120 -1085 -5 -20 -16 -44 -23 -54
-13 -18 -14 -18 -34 3 -39 42 -101 304 -138 586 -41 311 -77 548 -95 633 -14
65 -20 122 -18 185 2 81 0 96 -19 122 -37 52 -58 67 -87 59 -53 -13 -54 -18
-101 -524 -49 -530 -135 -1076 -205 -1301 -33 -108 -60 -149 -95 -149 -51 0
-64 66 -90 465 -17 272 -32 530 -40 710 -13 275 -56 995 -66 1105 -19 211 -62
324 -157 411 -70 64 -148 89 -274 89 -247 0 -440 -129 -558 -374 -59 -121 -73
-190 -68 -322 4 -102 7 -116 40 -187 49 -102 112 -168 206 -215 70 -34 83 -37
181 -40 121 -4 188 14 264 72 58 44 106 140 114 228 20 217 -96 372 -277 372
-41 0 -77 -6 -96 -17 -60 -31 -114 -116 -114 -179 0 -33 24 -94 46 -120 24
-26 71 -33 99 -14 37 24 31 52 -15 81 -48 30 -53 63 -17 116 47 70 157 76 227
12 80 -72 106 -228 54 -331 -115 -231 -477 -197 -601 56 -24 49 -28 71 -31
162 -7 198 37 309 183 457 69 70 106 99 157 123 154 72 333 63 435 -24 36 -30
77 -110 93 -180 19 -84 39 -481 65 -1271 24 -716 40 -907 96 -1128 47 -186 85
-248 143 -233 65 16 164 211 210 417 51 227 88 445 111 664 14 138 35 315 46
395 10 80 24 207 31 283 7 90 15 136 22 134 6 -2 44 -225 88 -528 84 -570 100
-650 154 -796 41 -114 79 -159 123 -148 66 16 91 70 125 265 34 197 62 435 86
740 40 507 65 739 159 1453 28 208 45 411 38 430 -8 20 -66 24 -68 5z"/>
<path d="M4943 2480 c-288 -40 -562 -192 -976 -541 -244 -207 -287 -238 -344
-255 -83 -24 -116 -2 -115 77 1 83 50 124 119 100 42 -15 63 -2 63 39 0 58
-78 85 -152 52 -71 -31 -108 -98 -108 -193 0 -121 48 -167 159 -154 91 10 163
54 416 255 253 202 415 316 556 393 239 131 471 187 647 157 57 -9 76 -9 87 0
20 16 19 44 -2 61 -19 17 -252 22 -350 9z"/>
<path d="M5120 2245 c-41 -12 -106 -28 -145 -34 -95 -14 -212 -54 -318 -107
-145 -73 -233 -136 -507 -364 -535 -447 -869 -703 -1047 -805 -88 -50 -88 -50
-179 -50 -83 0 -94 2 -139 30 -27 17 -68 54 -92 83 -40 49 -43 57 -43 113 0
73 27 131 73 159 45 28 76 25 125 -11 43 -31 67 -33 79 -4 18 49 -74 110 -165
108 -42 0 -62 -6 -94 -29 -58 -41 -99 -119 -105 -198 -5 -56 -2 -70 23 -116
56 -103 206 -207 314 -218 58 -5 157 12 215 37 55 25 335 237 819 621 557 443
598 474 702 536 154 91 283 132 514 165 104 14 120 22 120 57 0 58 -31 63
-150 27z"/>
<path d="M5225 2037 c-68 -13 -218 -63 -285 -95 -66 -31 -145 -102 -172 -155
-34 -68 -22 -153 29 -199 26 -24 87 -48 121 -48 46 0 77 33 151 159 78 132
143 210 207 247 51 30 63 57 38 85 -19 21 -17 21 -89 6z m-174 -205 c-27 -43
-60 -101 -75 -130 -14 -28 -37 -59 -50 -67 -22 -15 -27 -15 -55 0 -55 28 -50
91 14 164 27 31 171 110 203 111 6 0 -10 -35 -37 -78z"/>
</g>
</svg>
